# xmcd
#
# Track frame offsets: 
#        150
#        11542
#        29655
#        49662
#        63120
#        82187
#        121557
#        133870
#        145685
#        155805
#        167010
#        182845
#        193657
#        205517
#
# Disc length: 2921 seconds
#
# Revision: 0
# Processed by: cddbd v1.5.2PL0 Copyright (c) Steve Scherf et al.
# Submitted via: ExactAudioCopy v0.99pb3
#
DISCID=bd0b670e
DTITLE=Various Artist - Alone with the Blues
DYEAR=1994
DGENRE=Blues
TTITLE0=Mama You Got A Daughter - John Lee Hooker
TTITLE1=I'm A Stranger Here - Sonny Terry and Brownie McGhee
TTITLE2=Leave Jike Mary Alone - Lightnin' Hopkins
TTITLE3=Alone In The City - Ray Charles
TTITLE4=House Rockin' Boogie - Howlin' Wolf
TTITLE5=All The Blues, All The Time - Ike Turner
TTITLE6=Blues Before Sunrise - Elmore James
TTITLE7=Sittin' and Thinkin' - Big Bill Dotson
TTITLE8=Me And My Mule - Jack Dupree
TTITLE9=I've Got A Pretty Flower - Leadbelly with Josh White
TTITLE10=Three Woman Blues - Memphis Slim
TTITLE11=Good Morning Little School Girl - Smokey Hogg
TTITLE12=Dissatisfied - Muddy Waters
TTITLE13=Get Some More You Fool - Jimmy Rushing
EXTD=
EXTT0=
EXTT1=
EXTT2=
EXTT3=
EXTT4=
EXTT5=
EXTT6=
EXTT7=
EXTT8=
EXTT9=
EXTT10=
EXTT11=
EXTT12=
EXTT13=
PLAYORDER=
